<?xml version="1.0" encoding="utf-8"?>
<!-- Generator: Adobe Illustrator 22.1.0, SVG Export Plug-In . SVG Version: 6.00 Build 0)  -->
<svg version="1.1" id="レイヤー_1" xmlns="http://www.w3.org/2000/svg" xmlns:xlink="http://www.w3.org/1999/xlink" x="0px"
	 y="0px" viewBox="0 0 27.4960632 27.4960632" enable-background="new 0 0 27.4960632 27.4960632" xml:space="preserve">
<g id="楕円形_1_2_">
	<g>
		<path fill="#D94236" d="M13.7480364,1.3079923c6.8594427,0,12.4400015,5.5805554,12.4400015,12.4400005
			s-5.5805588,12.4399996-12.4400015,12.4399996S1.3080378,20.6074352,1.3080378,13.7479925
			S6.8885927,1.3079923,13.7480364,1.3079923 M13.7480364,0.3079924c-7.4227219,0-13.4399986,6.0173335-13.4399986,13.4400005
			c0,7.4227209,6.0172768,13.4399977,13.4399986,13.4399977s13.4400015-6.0172768,13.4400015-13.4399977
			C27.1880379,6.325326,21.1707573,0.3079924,13.7480364,0.3079924L13.7480364,0.3079924z"/>
	</g>
</g>
<g id="XMLID_9_">
	<path fill="#D94236" d="M8.160512,4.5536566c0.0366211-0.0610352,0.402832-0.1220703,0.4882813-0.1220703
		c0.0366211,0,0.2319336,0.0366211,0.2441406,0.0366211s1.2817383-0.1464844,1.3305664-0.1586914
		c0.2441406-0.0244141,0.3417969-0.0732422,0.4638672-0.1098633l1.159668-0.1464844
		c0.1586914-0.0244141,1.4160156-0.2197266,1.4770508-0.2319336c0.4760742-0.0366211,1.3911133-0.0854492,1.8305664-0.1464844
		c0.1347656-0.012207,0.5986328-0.0366211,0.7324219-0.0366211c0.1103516,0,0.6113272,0.0488281,0.7089834,0.0488281
		c0.2929688,0,0.3164063,0,0.5732422-0.1098633c0.0615234-0.0366211,0.1337891-0.0366211,0.1953125-0.0366211
		c0.3173828,0,0.8789063,0.3051758,0.9150391,0.3295898c0.0488281,0.0488281,0.2695313,0.3173828,0.3300781,0.3540039
		c0.2070313,0.1586914,0.390625,0.2929688,0.390625,0.5371094c0,0.1220703-0.1708984,0.3540039-0.3046875,0.4394531
		c-0.0742188,0.0488281-0.1953125,0.2319336-0.1953125,0.2563477c-0.0253906,0.0732422-0.0126953,0.4638672-0.0253906,0.5371094
		c-0.109375,0.5371094-0.1210938,0.5859375-0.1210938,0.7568359c0,0.0854492,0,0.1586914-0.0126953,0.2075195l-0.0976563,1.0131836
		c0,0.0366211-0.1591797,1.1108398-0.1591797,1.3183594c0,0.2197266-0.0234375,0.5859375-0.0488281,0.8056641l-0.109375,1.0375977
		c-0.0244141,0.1953125-0.4023438,1.4160156-0.4511719,1.4770508c-0.0253906,0.0366211-0.3544922,0.2807617-0.4160156,0.2807617
		c-0.1582031,0-0.2558594-0.2075195-0.3291016-0.3662109c-0.0976563-0.1953125-0.1464844-0.2929688-0.1591797-0.3540039
		c-0.0361328-0.1220703-0.109375-0.2197266-0.3046875-0.4150391c-0.0371094-0.012207-0.1220703-0.0366211-0.1464844-0.0366211
		h-1.3300772c-0.0742188,0-0.390625,0.0976563-0.4521484,0.0976563c-0.2075195,0-0.2319336,0-0.4638672,0.0610352
		c-0.0854492,0.0244141-0.4760742,0.0488281-0.5493164,0.0610352c-0.2441406,0.0366211-0.8300781,0.1342773-1.184082,0.1953125
		h-0.1464844c-0.0366211,0-0.1953125,0.0854492-0.2319336,0.0976563c-0.0610352,0-0.4394531,0.0732422-0.4760742,0.0732422
		c-0.0244141,0.0366211-0.0488281,0.0488281-0.0854492,0.0488281c-0.0732422,0-0.4150391-0.1220703-0.4882813-0.1342773
		c-0.0976563,0.0610352-0.1342773,0.0610352-0.1831055,0.0610352c-0.3662109,0-0.5859375-0.4394531-0.6958008-0.7446289
		c-0.0610352-0.1708984-0.1953125-1.3793945-0.1953125-1.4404297c0-0.2075195-0.1098633-1.1108398-0.1220703-1.3061523
		c0-0.1708984-0.0854492-0.9521484-0.0976563-1.1108398C9.3690081,6.7265081,9.356801,6.6166449,9.2469378,6.0551214
		c-0.012207-0.0244141-0.0244141-0.2197266-0.0244141-0.3295898c-0.012207-0.1586914-0.2197266-0.5371094-0.4150391-0.6591797
		C8.7830706,5.0419378,8.184926,4.6024847,8.160512,4.5658636V4.5536566z M10.3089495,7.6542425l0.0488281,0.1708984
		c0.1220703,0.0244141,0.6835938-0.1342773,0.793457-0.1464844c0.2929688-0.0244141,1.574707-0.2685547,1.8432617-0.2807617
		l0.0732422-0.0610352c0.012207-0.1220703,0.0244141-0.1953125,0.0244141-0.402832
		c0-0.0854492-0.0244141-0.4760742-0.0244141-0.5615234c0-0.0488281,0.0610352-0.6958008,0.0610352-0.8300781
		c0-0.0854492-0.0366211-0.793457-0.1586914-0.8789063c-0.0244141-0.012207-0.3417969-0.1953125-0.378418-0.1953125
		c-0.0366211,0.012207-0.1220703,0.0244141-0.1586914,0.0366211c-0.5859375,0-1.184082,0.1708984-2.0385742,0.4272461
		c-0.2929688,0.0854492-0.3295898,0.0854492-0.4882813,0.1220703C9.8572893,5.090766,9.8084612,5.1395941,9.8084612,5.1884222
		s0.1953125,0.2563477,0.1953125,0.2685547c0.1464844,0.5859375,0.1708984,0.6713867,0.2075195,1.3916016
		c0.012207,0.1342773,0.0854492,0.6835938,0.0854492,0.793457L10.3089495,7.6542425z M11.9691057,11.5726995
		c0.4272461-0.1098633,0.4760742-0.1220703,0.8544922-0.1708984c0.1342773-0.0244141,0.2807617-0.0854492,0.3173828-0.2441406
		c-0.0488281-0.0854492-0.0610352-0.1098633-0.0610352-0.1831055c0-0.0488281,0.0366211-0.3540039,0.0366211-0.3662109
		c0-0.1708984-0.0244141-0.8911133-0.0244141-1.0375977c0-0.0854492,0-1.0742188,0.012207-1.1474609l-0.0366211-0.2807617
		c-0.0488281-0.012207-0.1220703-0.0488281-0.1586914-0.0488281c-0.0610352,0-0.3173828,0.1098633-0.378418,0.1220703
		c-0.0976563,0.012207-0.5493164,0.0610352-0.6347656,0.0732422c-0.7080078,0.1831055-0.78125,0.2075195-1.0131836,0.2075195
		c-0.0610352,0-0.3540039-0.0732422-0.4150391-0.0732422c-0.0244141,0-0.0488281,0-0.0854492,0.0366211
		c-0.012207,0.1098633,0,0.78125,0.012207,0.8178711c0.0732422,0.3051758,0.0854492,0.3540039,0.1342773,0.793457
		c0.012207,0.1708984,0.0610352,0.6591797,0.0854492,0.9521484c0.012207,0.1220703,0.1708984,0.6469727,0.1953125,0.7568359
		c0.0488281,0.0488281,0.1098633,0.0610352,0.1708984,0.0366211L11.9691057,11.5726995z M14.1541643,8.1059027
		c0,0.0854492-0.0732422,0.4882813-0.0732422,0.5737305c0,0.7202148,0,0.8056641-0.0610352,1.3305664
		c-0.012207,0.0976563-0.0244141,0.5615234-0.0488281,0.6469727c0,0.0732422-0.0610352,0.3417969-0.0732422,0.390625v0.1220703
		c0.0244141,0,0.0976563,0.0244141,0.1342773,0.0244141c0.0610352,0,0.5004883-0.0854492,0.5981445-0.0854492
		c0.2568359,0,1.3916006-0.0488281,1.6240225-0.0488281c0.109375,0,0.6220703,0.0854492,0.7197266,0.0732422
		c0.1220703-0.2197266,0.1953125-1.1352539,0.2080078-1.3671875c0.0117188-0.2197266,0.109375-1.159668,0.1210938-1.3427734
		l0.0371094-1.0986328c0-0.1586914,0.0859375-1.0986328,0.0859375-1.4526367c0-0.1342773,0.0361328-0.9765625,0.0605469-1.171875
		c0-0.0488281,0.0371094-0.2441406,0.0371094-0.2929688s-0.0371094-0.1586914-0.0371094-0.1831055
		c-0.0371094-0.012207-0.0859375-0.0366211-0.1220703-0.0366211c-0.3779297,0-0.7685547-0.0244141-1.1591797-0.0732422H16.082386
		l-1.1103506,0.0732422c-0.0732422,0-0.3662109,0.0366211-0.4394531,0.0366211c-0.2314453,0-0.2568359,0-0.4760742,0.0732422
		C13.9832659,4.321723,13.8978167,4.321723,13.6902971,4.33393l-0.012207,0.0244141v0.0488281
		c0.0244141,0.012207,0.1586914,0.1098633,0.3173828,0.1953125c0.012207,0.012207,0.2802734,0.2685547,0.2802734,0.4394531
		c0,0.0488281-0.0488281,0.2319336-0.0488281,0.2685547c0,0.2075195-0.0117188,1.0986328-0.0117188,1.2817383
		c0,0.0488281-0.0488281,0.3417969-0.0488281,0.402832c0,0.0976563,0.0244141,0.1586914,0.1464844,0.1586914
		c0.0859375,0,0.4394531-0.0610352,0.5126953-0.0732422c0.4033203-0.0366211,0.4394531-0.0366211,0.5615234-0.1586914
		c0.390625,0.012207,0.7441397,0.0732422,1.0859365,0.2441406c0.0371094,0.0366211,0.2207031,0.2441406,0.2207031,0.2929688
		s-0.2207031,0.4150391-0.390625,0.4150391c-0.1347656,0-0.7324209,0.0366211-0.8554678,0.0366211
		c-0.1699219,0-1.1230469,0.0732422-1.269043,0.1220703L14.1541643,8.1059027z"/>
	<path fill="#D94236" d="M8.2581682,17.4384212c0.0488281,0,0.2075195,0.0126953,0.2685547,0.0126953
		s0.390625-0.0742188,0.4394531-0.0742188c0.1342773,0,0.6713867,0.1953125,0.793457,0.1953125
		c0.1953125,0,1.0498047-0.1464844,1.2207031-0.1464844c0.3417969,0,0.378418,0,0.6958008-0.0849609
		c0.0488281-0.0126953,0.3051758,0,0.3540039,0c0.1708984-0.0126953,1.2207031-0.1826172,1.2939453-0.2080078
		c0.0244141-0.4140625,0.0244141-0.5605469-0.012207-0.9023438l0.012207-0.3671865
		c0-0.1826172-0.0732422-0.9765625-0.0976563-1.1469727c-0.0976563-0.0976563-0.7080078-0.3295898-0.8544922-0.378418
		l-0.0244141-0.0732422c0.1098633-0.0976563,0.3417969-0.2685547,0.4516602-0.3417969s0.2197266-0.0854492,0.3051758-0.0854492
		c0.1098633,0,0.1831055,0,0.7324219,0.2685547c0.2075195,0.1098633,0.378418,0.1464844,0.5981445,0.1953125
		c0.0615234,0.012207,0.2802734,0.2075195,0.3173828,0.2563477c0.0117188,0.0488281,0.0488281,0.1826172,0.0488281,0.2197266
		c0,0.0859375-0.2685547,0.3535156-0.28125,0.4277344c0,0.0605469-0.0117188,0.4140625-0.0234375,0.4628906
		c0,0.0488281-0.0371094,0.390624-0.0371094,0.4394522c0,0.0253906,0.0117188,0.0488281,0.0244141,0.0859375
		c-0.0361328,0.1464844-0.0615234,0.2441406-0.0615234,0.3535156c0,0.0488281,0.0253906,0.2695313,0.0253906,0.3056641
		c0,0.0732422,0,0.1220703,0.0361328,0.1591797c0.1591797,0,0.8789063-0.0742188,1.0253906-0.0859375l1.64746-0.0859375
		c0.0488281,0,0.3183594-0.1826172,0.390625-0.21875c0.1464844,0.0117188,0.171875,0.0117188,0.3544922-0.0253906
		c0.1337891,0.0976563,0.1464844,0.1103516,0.2441406,0.1230469c0.1953125,0.1464844,0.2802734,0.1826172,0.6347656,0.3291016
		c0.5009766,0.2080078,0.5859375,0.6708984,0.5859375,0.78125c0,0.0849609-0.0488281,0.1708984-0.1220703,0.1708984
		c-0.0488281,0-0.2929688,0.0605469-0.3417969,0.0605469c-0.1835938,0.1953125-0.3535156,0.6347656-0.4150391,0.8554688
		c-0.0126953,0.0605469-0.1464844,0.3535156-0.1464844,0.390625c0,0.0234375,0.0849609,0.1699219,0.1103516,0.21875
		c0.0234375,0.0488281,0.0605469,0.1230469,0.0605469,0.1953125c0,0.3671875-0.4023438,0.3671875-0.5253906,0.3671875
		c-0.21875,0-1.1591797-0.1103516-1.3544922-0.1230469c-0.2314453-0.0117188-0.3291016,0-0.5859375,0.0126953l-1.3310537,0.0615234
		c-0.390625,0.0117188-0.390625,0.0722656-0.390625,0.21875v0.2695313l-0.0605469,1.1835938
		c0,0.0488281,0.0117188,0.2558594,0.0117188,0.2929688c0,0.0488281-0.0849609,0.3789063-0.0849609,0.4511719
		c0,0.0859375,0.0244141,0.4765625,0.0244141,0.5625c0,0.0722656-0.1098633,1.0488281-0.1342773,1.1835938
		c-0.0244141,0.0859375-0.2319336,0.8417969-0.2685547,0.9521484c-0.0610352,0.0488281-0.1464844,0.1220703-0.1831055,0.1220703
		c-0.0610352,0-0.0976563-0.0371094-0.1342773-0.0732422c0-0.0976563,0-0.1220703-0.0488281-0.2314453
		c-0.0488281-0.1230469-0.0610352-0.1953125-0.0610352-0.4882813c0-0.0742188-0.0244141-0.390625-0.0244141-0.4648438
		c0-0.0488281,0.0244141-0.2675781,0.0244141-0.3291016c0.0244141-0.4033203-0.0488281-1.0498047-0.0610352-1.4521484
		l-0.012207-0.5136719c0-0.0234375,0.0610352-0.3046875,0.0610352-0.3535156v-0.6953125c0-0.0976563,0-0.390625-0.0854492-0.5136719
		c-0.0976563,0-0.8300781,0.0253906-0.9765625,0.0742188c-0.1342773,0.0361328-1.3671875,0.1826172-1.6113281,0.1826172
		c-0.0854492,0.1103516-0.1708984,0.2197266-0.4882813,0.2197266c-0.1831055,0-0.378418-0.4394531-0.5615234-0.8671875
		c-0.0488281-0.1210938-0.1464844-0.7070313-0.1831055-0.8173828c-0.1586914-0.5126953-0.1831055-0.5732422-0.5371094-0.78125
		c-0.0366211-0.0244141-0.2075195-0.1708984-0.2441406-0.1953125c-0.0488281-0.0244141-0.2807617-0.1337891-0.3173828-0.1591797
		c-0.0610352-0.0488281-0.0976563-0.0849609-0.1708984-0.1582031c-0.0366211-0.0117188-0.0610352-0.0371094-0.0610352-0.0605469
		c0-0.0253906,0.0244141-0.0488281,0.0610352-0.0859375L8.2581682,17.4384212z M13.250844,19.5136166l0.0610352-0.0371094
		v-0.1582031l0.012207-1.28125c0.0244141-0.2324219,0.0366211-0.3544922-0.0854492-0.3544922
		c-0.0488281,0-0.2807617,0.0361328-0.3173828,0.0361328h-0.1708984l-1.0986328,0.1347656
		c-0.0732422,0.0117188-0.6225586,0.0244141-0.6713867,0.0371094c-0.1220703,0.0117188-0.7080078,0.0976563-0.78125,0.1210938
		c-0.0488281,0.0253906-0.0854492,0.0488281-0.1342773,0.1103516c0.2319336,0.0976563,0.3662109,0.4267578,0.378418,0.4755859
		c0.0610352,0.1953125,0.1220703,1.1113281,0.1831055,1.2822266c0.1953125,0.0244141,2.1240234-0.3291016,2.4291992-0.3662109
		H13.250844z M16.4241829,19.29389c0.1230469-0.0126953,0.6347656,0.0126953,0.7451172,0
		c0.2080078-0.2568359,0.3417969-1.1845703,0.3662109-1.2695313c0.0244141-0.2441406,0.0371094-0.3056641,0.0859375-0.4394531
		c0.0117188-0.0488281,0.0117188-0.1220703-0.0126953-0.1591797l-1.0742188-0.0117188
		c-0.2197266,0-1.3544912,0.1220703-1.42871,0.1220703c-0.0976563,0-0.5371094,0.0615234-0.6220703,0.0732422
		c-0.0488281,0.1347656-0.1337891,0.9882813-0.1337891,1.0498047c0,0.6591797,0,0.7197266,0.0361328,0.78125
		c0.1103516,0,0.5859375-0.0615234,0.6708984-0.0615234c0.0615234,0,0.2929688-0.0234375,0.3417969-0.0234375L16.4241829,19.29389z"
		/>
</g>
</svg>
